<svg width="23" height="20" viewBox="0 0 23 20" fill="none" xmlns="http://www.w3.org/2000/svg">
<path d="M0.700195 6.06543C0.692881 5.58637 0.750649 5.10826 0.871094 4.64453L0.873047 4.63672C1.09781 3.73039 1.57196 2.9051 2.24121 2.25391L2.24707 2.24805C2.67895 1.81762 3.18016 1.46386 3.72949 1.20215L3.96777 1.0957C5.2562 0.56829 6.70057 0.567226 7.98926 1.09375V1.09473C8.58892 1.34855 9.14059 1.70339 9.62109 2.14258L9.66992 2.2002L9.68945 2.22461L11.252 3.78711L12.8145 2.22461L12.835 2.2002L12.8809 2.14355C13.3599 1.7053 13.9101 1.35158 14.5078 1.09766C15.798 0.568218 17.2445 0.567717 18.5352 1.0957H18.5361C19.1787 1.36441 19.7634 1.75551 20.2568 2.24707V2.24805L20.2656 2.25586C20.5986 2.57713 20.8804 2.94756 21.1006 3.35449L21.1055 3.36523L21.1123 3.37598C21.344 3.77149 21.5193 4.1975 21.6328 4.6416V4.64453C21.7533 5.10821 21.8111 5.58641 21.8037 6.06543V6.08008C21.8094 6.98773 21.5698 7.88072 21.1113 8.66406L21.1074 8.6709L21.1025 8.67871C20.8784 9.08501 20.5938 9.46063 20.2607 9.78809L20.2568 9.79199L11.252 18.7959L2.24609 9.79004L2.00098 9.53125C1.84381 9.35326 1.69884 9.16486 1.56641 8.96777L1.37793 8.66602C1.1599 8.26892 0.989829 7.84735 0.871094 7.41016C0.757738 6.97514 0.701199 6.52673 0.701172 6.07617L0.700195 6.06543Z" stroke="white" stroke-width="1.4"/>
</svg>
