<svg width="25" height="25" viewBox="0 0 25 25" fill="none" xmlns="http://www.w3.org/2000/svg">
<path d="M1.94922 9.51738C1.9419 9.03832 1.99967 8.56021 2.12012 8.09648L2.12207 8.08867C2.34683 7.18234 2.82098 6.35705 3.49023 5.70586L3.49609 5.7C3.92797 5.26957 4.42919 4.91581 4.97852 4.6541L5.2168 4.54765C6.50522 4.02024 7.94959 4.01918 9.23828 4.5457V4.54668C9.83794 4.8005 10.3896 5.15534 10.8701 5.59453L10.9189 5.65215L10.9385 5.67656L12.501 7.23906L14.0635 5.67656L14.084 5.65215L14.1299 5.5955C14.609 5.15725 15.1591 4.80353 15.7568 4.54961C17.0471 4.02017 18.4935 4.01967 19.7842 4.54765H19.7852C20.4277 4.81636 21.0125 5.20746 21.5059 5.69902V5.7L21.5146 5.70781C21.8476 6.02908 22.1295 6.39951 22.3496 6.80644L22.3545 6.81718L22.3613 6.82793C22.593 7.22344 22.7684 7.64945 22.8818 8.09355V8.09648C23.0023 8.56016 23.0601 9.03836 23.0527 9.51738V9.53203C23.0585 10.4397 22.8189 11.3327 22.3604 12.116L22.3564 12.1228L22.3516 12.1307C22.1274 12.537 21.8428 12.9126 21.5098 13.24L21.5059 13.2439L12.501 22.2478L3.49512 13.242L3.25 12.9832C3.09284 12.8052 2.94786 12.6168 2.81543 12.4197L2.62695 12.118C2.40893 11.7209 2.23885 11.2993 2.12012 10.8621C2.00676 10.4271 1.95022 9.97868 1.9502 9.52812L1.94922 9.51738Z" stroke="black" stroke-width="1.4"/>
</svg>
